<svg xmlns="http://www.w3.org/2000/svg" viewBox="0 0 832.26 930.3"><title>panel-four-placeholder</title><g id="Layer_2" data-name="Layer 2"><g id="Layer_1-2" data-name="Layer 1"><filter id="inset-shadow" x="-50%" y="-50%" width="200%" height="200%">
<feComponentTransfer in="SourceAlpha">
  <feFuncA type="table" tableValues="1 0" />
</feComponentTransfer>
<feGaussianBlur stdDeviation="3"/>
<feOffset dx="0" dy="0" result="offsetblur"/>
<feFlood flood-color="rgb(20, 0, 0)" result="color"/>
<feComposite in2="offsetblur" operator="in"/>
<feComposite in2="SourceAlpha" operator="in" />
<feMerge>
  <feMergeNode in="SourceGraphic" />
  <feMergeNode />
</feMerge>
</filter>
<path filter="url(#inset-shadow)" d="M750.08,488c3,2.34,4.68,3.66,3.43,6.32-.83,1.77,1.14,2.53,2.09,3.57,1.24,1.35,3.18,2.8,2.45,4.62-1.7,4.2-3.93,8.16-4.86,12.7-.3,1.46-2,.69-3.05.37-2.05-.6-3.84-.23-6.44,1.82,5.28-.08,4.22,5.4,7.77,6.48.17.05.38.76.28.86-4.57,4.44,1.28,4.65,2.68,6.68s4.78,3.5,3.1,6.68c-2,3.74-5.71,1.08-9,2.13,6.15,1.05,9.84,4.68,11.22,10.34,1.17,4.77,1.85,9.67,2.79,14.5.28,1.42-.58,2.09-1.48,2.88-5.5,4.85-7.57,16.55-4.11,23,.39.73,1.27,1.73,1,2.17-3,6.09,3.09,9,4.55,13.55.77,2.39,2.87,3,4.93,3.75,6.1,2.37,7.14,4.91,4.65,10.8-.4,1-.91,2.05-.33,2.86,4.4,6.18,5.77,14.26,13.8,18.23,5.6,2.77,9.75,8.26,15.14,11.84a4.41,4.41,0,0,1,1.43,3.06c.66,9.89,5.66,17,13.82,22.21,2.27,1.46,3.51,4,5.08,6.12,2.45,3.38,5,6.72,9,8.42a3.1,3.1,0,0,1,2.2,3.46c-.23,2.19-1.85,2.55-3.6,2.63s-3.33.09-5,.09q-164.47.11-328.95.14c-2.54,0-5.81,1.41-7.35-2.4-.79-2-1,.09-1.36.38-.66.47-1.23,1.23-2,1.42-2.74.7-7-.55-5.39,5,.78,2.78-.21,6.18,3.06,7.94,1.69.91,1.83,2.4,1.42,3.86-1,3.44.44,6.06,2.28,8.81,3,4.52,4.29,10.42,7.39,14.37,4.44,5.64,1.73,11.68,3.61,16.85,3.76,10.34,1.67,21.58,6.07,31.61a9.61,9.61,0,0,1,.27,6.34,8,8,0,0,0,.8,6.28c2.17,3.5,2.16,7.27,1.35,11.12-1.3,6.16-2.32,12.33-4.42,18.38-1,2.73,1.65,6.65.47,10.25-.4,1.24,1.67,4.15-2.13,2.7,0,0-.6.8-.5,1.09,1.43,4.37-1.88,6.38-4.39,8.69-3.83,3.53-5,8.53-7.46,12.85C474.17,887.72,462.35,910,440.29,924c-7,4.46-14.87,7.06-23.26,6-16.18-2-32.62-1.18-48.64-4.29-11.79-2.29-21.55-8-28.09-18.9-4.48-7.5-10.73-13.89-15.86-21-8-11.21-15.82-22.64-21.69-35.07-4-8.45-6-17.85-8.84-26.84-.15-.46-.33-1.21-.1-1.45,7.37-7.61-.55-14.22-1.47-21.25a8.51,8.51,0,0,1,1-5.63c1.69-3.11,3.6-6.27,1.56-10-.13-.24-.11-.83,0-.92,7.25-4.6,2.33-12.38,4.56-18.56a84.12,84.12,0,0,0,5.11-26.28,91,91,0,0,1,2.53-20.7c.66-2.54-1.09-4.37-1.45-6.58a21.88,21.88,0,0,1,0-9.06c.93-3.91-2.22-3.32-4.42-3.33-12.66,0-25.33.08-38,.08l-253.46,0a37.92,37.92,0,0,1-5-.13C1.72,699.7.31,698.27,1.69,695c2.06-5,3-9.85-1-14.52-1.63-1.9-.08-3.12,1.5-4.41,2.81-2.3,7.84-3.93,3.73-9.14-.09-.12-.14-.43-.09-.47,5.58-3.94,1.64-11.81,6.64-16,3.09-2.58,3.37-8.38,9.1-7.95.58-5.41,2.28-10.15,7.48-12.91a2.66,2.66,0,0,0-.55-1.69c-3.32-2.77-3.07-6-2.38-9.94.48-2.75-1.77-5.7-3.7-7.85-2.14-2.39-2-4.18-.37-6.59,2.48-3.66,5.66-7.2-.35-11-2.49-1.59-1.8-4.89.14-7.15A28.81,28.81,0,0,1,27,580.58c1.74-1.24,3.25-2.36,2.85-4.76a3.06,3.06,0,0,1,1.9-3.65c2.37-1.07,1.81-2.33.3-3.75-2.38-2.23-1.79-4.56.22-6.54,4.08-4,3.22-9.65,4.79-14.48.65-2-2.26-3.31-3.05-5.4-2.38-6.27-1.63-7.95,4.56-9.89,1.17-.37,7.22,1.61,3.19-3.83-.4-.54,1-1.09,1.74-1.45a11.37,11.37,0,0,0,4.28-3.05c-1.84.65-3.73,1.18-5.49,2-2.63,1.19-4.87,1-6.66-1.41-1.09-1.44-2.67-1.8-4.24-2.38-3.21-1.19-3.94-4.81-1-5.89,8.59-3.13,5.89-10.71,5.51-15.83-.5-6.81-1.38-13.49-.35-20.31.45-3,1.33-5.42,4.61-6.41a8.66,8.66,0,0,0,4.77-3.62c-1.66-.95-4.43,1.07-5.11-1.64-.41-1.63,1.89-.73,2.55-1.7-1.45-.92-3.35.09-5-1.55,3.67-1.24,1.82-3.33,1.25-5.52-.9-3.47.85-7.64-2.94-10.35a2.14,2.14,0,0,1-.45-1.86c2.33-8.9-1.69-17.16-2.45-25.75a3.24,3.24,0,0,1,.53-2.32c2.6-2.54,1.94-6.65,3.54-8.87,2.64-3.65,2.56-8.21,5.35-11.55,1.32-1.59,2.44-3.27.52-5.27-.77-.8-.58-1.75-.28-2.79,2-7.09,4.92-13.93,6.37-21.21.39-2,1.13-3.75.36-5.81a4.34,4.34,0,0,1,.54-4.29c4.44-5.87,4-13,5.61-19.64,1.81-7.62,2.92-16.7,11.17-21.26a6.77,6.77,0,0,0,3.84-7.39c-.94-7.31.48-14.59.06-21.9a16,16,0,0,1,1.31-8.3c1-2.08.49-4.21-.4-6.28a12.46,12.46,0,0,1-1.15-7.3c.53-2.82-.48-4.26-3.11-5.86-4-2.45-5.61-7-5.15-11.61a34.58,34.58,0,0,1,4.26-13.21c2.67-4.84,2.43-10.28,2.34-15.61-.07-3.85,1.76-7.31,2.45-10.76,1.54-7.69,6-14.75,4.93-23.08-.57-4.56-.87-8.6-3.44-12.95-2-3.45-1.22-9.17,2.35-12.94s5.37-8.37,7.16-13a4.37,4.37,0,0,0-.62-4.73c-1.63-1.71-3.1,0-4.47.67a18.42,18.42,0,0,0-7.6,7.06c-4.77,7.57-11.79,13-17.78,19.45-8.64,9.25-21.25,10.53-32.21,15-9.44,3.84-9.46,2.88-8.67-6.9a76.53,76.53,0,0,1,10.58-33c.85-1.44,2.17-2.81,2-4.48-.54-6.77,3.85-13.35,1.1-20.09C20.71,112.7,23,104,24.82,95.88c1.57-7,4.58-14,7.6-20.6,2.8-6.13,9.68-8.91,16-11.09,2.38-.81,3.64-1.85,4.2-4.23,1-4.06,2.9-7.44,7.14-9a3.64,3.64,0,0,0,2.46-2.92c.89-5,4.89-7.16,8.92-7.48a37.3,37.3,0,0,0,15.47-4.68c6.45-3.59,14.64-3.69,19.74-10,1-1.29,2.9-1.53,4.56-1.84,8.12-1.53,16.25-3.12,23.84-6.47A85.23,85.23,0,0,0,148.94,10c5.08-3.52,11.39-4.38,16.23-8.47,2-1.65,5.13.33,7.73.76,4.94.81,9.63,1.56,14.51-1.16,4.41-2.45,7.66-.85,10.64,3.69,1.37,2.08,2.91,4.05,4.32,6.11,1.21,1.76,3.1,2.7,4.72,1.53,4.51-3.27,9.36-.53,14-1.18,2.31-.33,4.39,1.33,6.36,2.6,5.6,3.61,11.33,5.64,17.61,1.49,1.85-1.22,3.31-.7,4.79.91,3.08,3.35,6.25,6.31,11.54,4,2.52-1.07,4.84.39,6.58,2.47,4.18,5,8.45,9.18,15.75,10.15,5.2.69,10.34,3.7,14.92,6.61,5.1,3.24,10,3,15.23,1.32,4.34-1.39,8.38-2.68,12.69.75,7,5.58,9.73,5.59,17.23.17,2.83-2,5.51-2.95,8.77-2.37,5.77,1,11.6-.92,17.37.49a5.46,5.46,0,0,0,4.33-.86c9.77-6.75,20.9-5.31,31.73-5,3.53.1,6.36-1.69,9.71-1.83,7.56-.32,13.89,2.63,20,6.62,5.57,3.63,11.83,4.5,18.34,4.05a4.58,4.58,0,0,0,.49-.11c3.35-.61,6.62,3.37,8.21,2.55,3.39-1.75,5.27-.66,8.13.6,5.61,2.48,11.94,0,17.71,1.6,8.06,2.27,16.74.09,24.62,5.32,7,4.64,15.82,5.23,24.36,4a4.46,4.46,0,0,1,3.76.74c2.15,1.79,5.17,1.58,7.3,2.76,6,3.3,11.78,5.72,19,5.72,3.24,0,6.6,4.46,10.3,6.47,5.74,3.13,12.2,4.08,18,6.86,6.95,3.35,14.82,4.11,21.6,7.89,1.36.76,3.15,1.24,4.34.54,4.44-2.59,7.85-.1,11.5,1.77,2.52,1.29,5.07,2.59,8,2.47a6.21,6.21,0,0,1,5.82,3.16c.9,1.38,2.35,2.39,3.25,3.77,3.61,5.58,8.64,7.5,15.23,7.37,7.73-.15,11.73,3.57,12.53,11.5.44,4.33,1.71,6.52,6.28,6.16,3.12-.25,3.94,1.69,3.93,4.44,0,3.13-1.19,6.21-.13,9.41,1.52,4.63,4.08,7.06,9.31,8.29,11.18,2.63,22.87,4,33,10.2,3.06,1.88,5.58,4.24,6.27,8,.24,1.29.17,2.77,1.82,3.24,8.08,2.27,13.29,7.69,17.86,14.58,3.44,5.17,8.48,9.31,13,13.7,9.17,8.88,17.17,18.52,21,31a13.81,13.81,0,0,0,3.2,5.6,26.62,26.62,0,0,1,6.56,12.2c2.33,9.17,3.9,18.53,6.33,27.67a150.49,150.49,0,0,1,4.74,22.76c.85,7.9,3.28,15.57,3,23.67a295.32,295.32,0,0,0,3.8,60.13c2.92,17.14,2.75,34.47,2.22,51.79-.17,5.75-2.35,11.07-4.64,16.25-1.58,3.58-5.23,4.34-8.82,1.71-8-5.88-14.52-12.91-18.55-22.36-5.68-13.34-11.5-26.62-15.34-40.62-2.58-9.41-6.18-18.66-5.73-28.7a7.54,7.54,0,0,0-.27-3.46c-4.6-9.4-3.64-20.51-8.26-29.62-7.65-15.09-10.68-31.89-18.64-46.78-2.85-5.34-7.5-6.56-12.31-2.91-5.9,4.48-7.06,11.07-2.72,17A16.81,16.81,0,0,1,728.47,303a54.31,54.31,0,0,0,3.37,25.31c.84,2.1.38,4.13-.46,6.27-2,5-2.24,10.12.24,15.16,1.56,3.16.61,6.57.73,9.86.1,2.57.08,5.1,2.66,6.55,3.07,1.73,1.12,4.89,2.19,7.27A53.26,53.26,0,0,1,741,404.33a7.5,7.5,0,0,0,.38,4.4c4.92,9.19,4.34,19.64,6.81,29.39a16.06,16.06,0,0,0,7.16,10.28c2.18,1.37,4,2.2.52,4.31-2.82,1.72-3.93,4.31-2.62,7.72,1.16,3-.28,5.45-2.38,7.55-3.45,3.43-3.06,7.74,1.29,9.85,2.79,1.35,4.18,3.11,4.08,6.13S754.25,488,750.08,488Z"/></g></g></svg>
