<svg xmlns="http://www.w3.org/2000/svg" viewBox="0 0 809.94 840.4"><title>panel-seven-placeholder</title><g id="Layer_2" data-name="Layer 2"><g id="Layer_1-2" data-name="Layer 1"><filter id="inset-shadow" x="-50%" y="-50%" width="200%" height="200%">
<feComponentTransfer in="SourceAlpha">
  <feFuncA type="table" tableValues="1 0" />
</feComponentTransfer>
<feGaussianBlur stdDeviation="3"/>
<feOffset dx="0" dy="0" result="offsetblur"/>
<feFlood flood-color="rgb(20, 0, 0)" result="color"/>
<feComposite in2="offsetblur" operator="in"/>
<feComposite in2="SourceAlpha" operator="in" />
<feMerge>
  <feMergeNode in="SourceGraphic" />
  <feMergeNode />
</feMerge>
</filter>
<path filter="url(#inset-shadow)" d="M460.08,840.23q-170.23,0-340.46.05c-3.84,0-6.52-.52-6.54-5.21,0-1.36-1.19-2.7-1.73-4.09-1.45-3.75-3-7.46-.38-11.42.57-.86.46-2.23.52-3.37a11.42,11.42,0,0,0-.19-3c-1.07-4.94,5-8.38,3.5-12.54-1.38-4-3.39-7.09-2.82-11.88.49-4.18,0-8.13,2.39-12.15,1.37-2.27-1.15-5.46-.9-8.63.85-10.67,4.17-20.85,5.48-31.4,1-7.89-.8-16,2.31-23.74,1.25-3.1,2.35-6.21.52-9.54a2.85,2.85,0,0,1,.17-2.4c4-6.4,4.13-14.64,10.1-20.11,2.35-2.16,3.27-5.33,3.18-8.69-.41-15,4.54-28.23,13.68-40a9,9,0,0,0-1.39-12c-1.09-.9-2.12-1.86-2.06-3.24.22-5.62-2.77-11.63,3.66-16.38,3.11-2.29,4.23-7.05,7.06-10.16.22-.24.52-.6.48-.85-1.53-8.59,4.88-16.26,2.78-25-1.08-4.48-4.55-8.23-3.87-13.23.18-1.3-.48-2.84,0-3.95,2.21-5.11.76-9.13-1.42-14.19-2.45-5.67-6.74-7.93-11.08-10.58-3-1.83-5.67-3-3.61-7.15.28-.55.52-1.56.23-1.9-3.24-3.9-2.34-9.79-7-13.2-4.27-3.15-6.6-8-9.35-12.57-3-4.94-5.81-9.9-8.37-15.07a12.38,12.38,0,0,1-1.62-5.64c0-2-.09-4.06-1.56-5.65a16.7,16.7,0,0,1-4.67-11.78,3.06,3.06,0,0,0-.5-1.9c-4.67-5.23-3.84-10.46-.4-15.95,1.37-2.19.35-4.17-1.83-5.47-2.77-1.65-4-4.24-4.87-7.26-1.25-4.52-2.85-8.89-7-11.7-2.44-1.64-2.05-4-1.37-6.3,2.66-8.92.08-18,1-27,.28-2.86-1.54-5.53-3.47-7.57-2.78-2.93-3.11-6.28-3.35-10.06-.52-8.11-.7-16.29-3-24.2a15.74,15.74,0,0,1-.14-9.31c1.2-3.92-1.39-7.09-3.52-9.9a15.54,15.54,0,0,1-3.32-11.14,13.91,13.91,0,0,0-1.94-9.12,5,5,0,0,1-.82-4.32c2.29-6.45-2.35-10.64-4.87-15.5a4.32,4.32,0,0,0-3.06-2.4c-2.4-.43-3.35-1.89-3.32-4.22.08-5.39-3.47-7.65-8-7.67-5.41,0-6.5-2.58-6.1-7.17.29-3.33.15-6.66-1.68-9.69s-4.27-5.47-7.91-5.31c-7.89.33-12.7-5.11-18-9.36C16,224.21,13.71,219.72,8.18,220c-1.51.07-2.34-1.18-2.22-2.76.2-2.49-.67-4.93-.06-7.46a10,10,0,0,0-1.38-8.18C-.09,195.07.72,187.79.1,180.4c-.65-7.8,2-14.14,4.46-20.88a4.22,4.22,0,0,0-.17-2.91c-2.94-6.51-.35-11.33,4.77-15.14,2.89-2.15,3.17-4.53,2.65-7.83-.93-5.86-.22-11.23,6.05-14.31,2.78-1.37,3.57-4.26,3.71-7.22.11-2.2.65-3.67,3.34-4,4.08-.55,4.54-5.35,7.8-7.19,6.89-3.9,11.91-12,21.64-9.32.54.15,1.63-.1,1.81-.48,3.3-6.92,11.59-9.94,13.8-17.75.4-1.4,1.35-2.67,1.34-4.22,0-3.93,1.88-6.27,5.77-6.91a4.33,4.33,0,0,0,3.34-1.91c1.94-3.22,5-4,8.51-4.26a13.24,13.24,0,0,0,11.71-7.54c.91-1.8,2.32-2.19,4-2.39a21.21,21.21,0,0,0,10.9-4.46c2.78-2.18,6.12-3.76,9.71-3.38,5.93.62,10.61-1.41,14.87-5.34,3.36-3.1,7.19-5.45,12.17-4.37a3.9,3.9,0,0,0,3.68-1.2c3.45-3.85,8.66-3.92,12.81-6.24a5.48,5.48,0,0,1,6.9,1c2.3,2.23,4.22,1.51,5.77-.8,1.92-2.86,5.63-4.34,6.29-8.18,0-.28.39-.72.62-.73,4.78-.19,9.46-.63,13-4.51,4.39,5.46,11.19-2.55,15.8,2.84,1,1.14,3.07-.67,3.82-1.51,6.21-6.91,12.68-8,21.8-4.76,6.4,2.28,13.32,3.82,19.82,6.22,5.37,2,9.86,6.17,16.12,6,1.84,0,3.18,1.67,4.09,3.35,2.33,4.3,6.47,5.9,10.76,7.45a46.74,46.74,0,0,0,16.52,2.81c3.46,0,5.74,3.19,9,4.07,2,.54,3.68,1.3,5.66,0a4.83,4.83,0,0,1,4.82-.22c3.72,2,7.66,2.05,11.68,2a23.69,23.69,0,0,1,13.12,3.47c5,3,11.29,3.36,17,5.2,5.49,1.79,9.82-3.14,14.31-5.8,4.32-2.56,8.64-4,13.65-2.58,1.07.29,2.61.54,3.37,0,4.89-3.44,10.08-2.69,15.37-1.52a6.13,6.13,0,0,0,5.57-1.55c6.52-5.76,13.25-3.5,19.36.24,4.42,2.7,8.24,3.36,12.42.42,3-2.08,6.26-2,9.59-2.06,4.61,0,8.32-1.2,10.72-5.77,1.8-3.42,5.53-5.49,8.73-7.25,6.4-3.51,11.94-8.25,18.32-11.72,2.42-1.32,4.85-1.6,7,.08,3,2.33,5.49,1.77,7.77-1,5.19-6.27,11.12-8.83,18.69-3.9a4.17,4.17,0,0,0,2.89.34c9.2-2.08,18.52-.44,27.77-.92a3.63,3.63,0,0,1,2,.24c9,5.49,19.42,7,29.13,10.53a3.16,3.16,0,0,1,1.66,1c3.53,6.39,10.11,9.24,15.51,13.46.65.51,1.47,1.55,2,1.41,5.88-1.64,9.7,3.11,14.52,4.66,6.94,2.22,13.61,5.27,20.43,7.9,2.62,1,5.31,1.84,8,2.73,1.1.37,2.52.45,2.91,1.69,1,3.3,3.4,3,6,2.64,2.88-.44,4.93.58,6.73,3.14,2.18,3.11,5.11,5.68,7.61,8.58,2.17,2.52,4.56,3.29,8,2.62,5.2-1,7.72,1,8.72,6.37a29.17,29.17,0,0,1,.65,5.45c0,6.32,4.77,9.78,8.45,13.67,1.84,1.94,3.48,3.45,3.25,6.21-.35,4.32,1.85,5.35,5.86,6.09,6.38,1.19,11.69,5,15.75,10.12.73.93,1.34,2.26,2.4,2.3,5.86.25,8.14,5.51,12.14,8.34a6.7,6.7,0,0,1,2.91,6.5c-1,10.3,1.81,18.36,10.57,25.25,4.88,3.83,5.7,12.09,3.49,18.16-1.81,5-1.08,8.83.64,13a8.39,8.39,0,0,1,.07,7.14c-2.38,5.46-.37,10.8,1,16.12a18.71,18.71,0,0,1-13.66,23c-1.91.49-4.14,1.43-4.17,3.1-.13,6.31-6.14,10.23-6.24,16.5,0,2.24-1.72,3.88-3.55,5.2-3.51,2.53-7,5.14-10.48,7.67a7.73,7.73,0,0,0-3.2,3.73c-2.94,9.17-10.42,14.77-16.86,21.1a10.89,10.89,0,0,0-3.69,7.17c-.57,5.21-4.56,9.32-4.92,14.85-.19,2.92-1.09,5.8-.59,8.83.32,2,.55,4-.52,5.87a7.65,7.65,0,0,0-.31,8c1,1.85.13,3.87-.83,5.72-2.8,5.42-3.72,10.88-.88,16.73,2.2,4.54.42,9.53.76,14.31.12,1.62-.27,3.19.4,4.85.8,2-4,16.35-5.71,16.91-4.46,1.43-6.8,5.15-9.71,8.27s-4.21,6.81-2.27,11c2.84,6.1-.6,12.07-.26,18.14.17,3.12-.07,6,3.17,7.72.88.48,1.76,1.86,1.24,2.5-3.63,4.52-.58,11.35-6,15.54-2.65,2.06-2.89,6.34-1.32,9.81,4.75,10.52,7.72,22.15,17.94,29.36,1.81,1.28,2,3.43,1.88,5.45-.37,4.36.35,8.26,3.73,11.39a4.11,4.11,0,0,1,1.51,2.53c-.28,6.92,5.29,9.34,9.65,12.52,3.09,2.26,3.53,4.6,1.53,7.63-2.11,3.2-1.52,5.49.86,8.78,3.31,4.57,8,8.27,10.6,12.66,3.32,5.58,5.36,12.35,8,18.59,1.2,2.82-.73,5.77-2.29,8.41-1.42,2.39-1.5,4.16,1.94,5.15,5.47,1.57,7.57,4.82,7.81,10.86,0,.33-.11.81.06,1,6.39,6.12,3.85,15.8,9,22.41.41.52.69,1.33,1.22,1.54,4.58,1.85,4.87,4.8,2.46,8.63a2.54,2.54,0,0,0-.35,1.9c3.94,11.09,3.06,23.65,10.39,33.69,2.21,3,2,5.4-1,8.18-3.43,3.17-1.48,7.4.36,10.49,2.44,4.12,3.18,7.7,1.09,12.17-1.42,3-.4,6.28,1.83,8.85,5.14,5.91,6.84,14,12.56,19.6,2,2,1.82,5.52-.05,8-2.35,3.07-1.48,5.55,1.23,7.15,5.21,3.09,6.94,8.78,10.43,13.12,2.83,3.52,1.84,6.64-2,8.68-3.55,1.86-2.32,4.66-1,6.8a15.56,15.56,0,0,1,2.56,9.41c-.18,2.77,1.74,4.49,3.31,6.47,2.95,3.72,6.47,7.28,4.95,12.83a4.82,4.82,0,0,0,1.31,4.19c4,4.6,5.57,10.51,8.7,15.6,3.58,5.82,2.23,13,1.07,19.48-.61,3.4-4.34,3.08-7.15,3.09q-27.25.06-54.49,0h-287Z"/></g></g></svg>
