<svg xmlns="http://www.w3.org/2000/svg" viewBox="0 0 1100.04 816.77"><title>panel-three-placeholder</title><g id="Layer_2" data-name="Layer 2"><g id="Layer_1-2" data-name="Layer 1"><filter id="inset-shadow" x="-50%" y="-50%" width="200%" height="200%">
<feComponentTransfer in="SourceAlpha">
  <feFuncA type="table" tableValues="1 0" />
</feComponentTransfer>
<feGaussianBlur stdDeviation="3"/>
<feOffset dx="0" dy="0" result="offsetblur"/>
<feFlood flood-color="rgb(20, 0, 0)" result="color"/>
<feComposite in2="offsetblur" operator="in"/>
<feComposite in2="SourceAlpha" operator="in" />
<feMerge>
  <feMergeNode in="SourceGraphic" />
  <feMergeNode />
</feMerge>
</filter>
<path filter="url(#inset-shadow)" d="M1012,629.21c-2.8-1.18-3.26-5.06-6.77-4.24-.3,2,2.13,2.54,2.27,4.7-3.51-2.24-6.59-3.34-6.78,2.55-.07,2.13-1.1,3.2-3.17,1.38-.63-.55-1.39-1.17-2.22-.54a2,2,0,0,0-.26,2.72c1.28,2.19.6,3.85-.63,5.94-2.37,4-.33,8.35.4,12.39.63,3.5,2.48,6.79,4.05,10.84-2.45-1.05-2.14-4-4.73-4.36.63,3.48.72,6.77,1.6,10.11,1.46,5.56-3,10.43-2.71,16,0,.14-.15.42-.23.42-3.88.07-6.5,1.21-6.54,5.89,0,.61-2.34,1.95-1.49,3.81a2,2,0,0,0,1.54.94c2-.16,2.59-1.77,3-3.47a6.94,6.94,0,0,1,.69-1.36c2.68,3.34,2.27,8.8,7.49,10.11.37.09.63.75.87,1.18,3.52,6.3.3,23.27-5.43,27.88-1.72,1.38-.93,3.8-2.7,5.1-1.35,1,1,5.56-3.72,3.7-.81-.32-.93,1.85-.45,3,2.17,5.06.82,9.51-2.64,13.35-3.84,4.27-5.78,10.12-11.15,13.15-1.51.85-1.52,2.86-2.09,4.41a43.33,43.33,0,0,1-3,7.35c-3,5-4,5.14-8.29,1.27-1.5-1.35-2.3-1.3-3.68-.23-3.69,2.87-6.63,1.41-9.39-1.62-.84-.92-1.68-2.44-3.21-2-1.73.54-.9,2.24-1.09,3.47-.35,2.25-.72,4.5-1.27,7.94-3.35-4.7-1.49-9.89-4.89-14.89,0,4.24,0,7.29,0,10.34,0,1.68,1.39,4.15-1.2,4.69-3.21.67-1.8-2.73-3.24-5.39-.77,5.72-2.46,10.43-1.65,14.66.74,3.9-1,4.62-3.32,5.91-2.84,1.58-5.93.91-8.83.66-3.25-.28.15-3.6-1.83-4.93-3.12.52-4.63,3.44-6.91,5.24-2.58,2-4.8,2.41-7.66.48-4.13-2.79-5-2.17-5.42,3-.15,2.06.63,4.53-2,5.64a3.78,3.78,0,0,1-3.39-.16c-1.41-.83-.63-1.94-.24-3,.56-1.56,1.84-3.89,1.24-4.65-2.05-2.6-4.46-5.58-7.37-6.6-2-.71-4.45,2.31-6,4.6-1.3,1.92-.59,3.31.75,4.86.78.89,2.19,2.11.76,3.44s-2.8-.24-4.2-.48c-1.66-.27-2.5-1.52-1.64-2.9,2.94-4.7,1.31-6.87-3.74-7.45-2.17-.25-1.73-2.64-3.23-3.89-1.56,1.62-.39,3.85-1.18,5.35-5.44-4.24-10.88-8.63-14.84-14.35-3.66-5.29-9.09-8.23-14-11.82-3.12-2.27-7.75-1.9-10.32-5.44-.57-.79-2-1.45-2-2.09.41-5.5-4.15-9.73-3.72-15.2a9.39,9.39,0,0,0-2.76-7.25c-5.74-6.31-8.7-13.73-10.53-22.13a236.68,236.68,0,0,1-5-32.46c-.88-11.57.43-22.48,6.38-32.68,3.42-5.88,1-10.08-5.54-10.11-27.16-.12-54.33.1-81.48-.4-40.42-.75-80.83.42-121.25.32-105.81-.24-211.62,0-317.43-.11a38.36,38.36,0,0,0-22.92,7.12c-2.6,1.82-5.57,1.66-8.9,1.71-4.57.07-6.76-2.54-9.92-4.07s-4.25,0-5.77,2.51a67.59,67.59,0,0,1-17.82,19.83,8.86,8.86,0,0,0-2.68,2.89c-3.8,6.78-8.94,6.9-13.07.24-3.36,10.25-13.17,7.2-20.19,9.34-3.93,1.2-7.33,2.16-10.29,5.12-4.34,4.35-9.55,7.25-15.1,10.14-7.13,3.7-14.17,7-21.89,9.19-3.31.92-3.55,4-3.71,7-.5,8.91-2.07,10.09-11,9.14-7-.74-13.49.71-19.12,5.43-7.86,6.59-16.71,10.83-27.31,10.57-3.68-.09-7.69,2.57-10.8-1.66-.42-.57-1.22-.94-1.58-1.74-2.78-6.09-3.05-6.17-8.43-2.28a14.09,14.09,0,0,0-1.8,1.71c-5,5.18-6.74,4.88-9.23-1.55-.29-.75-.68-1.46-1-2.21-2.62.59-1.1,5-3.27,4.27-3.47-1.18-7.78-1.57-9.91-5.2a26.79,26.79,0,0,0-6.21-7.06,11.89,11.89,0,0,1-4.39-8.59A20.56,20.56,0,0,0,11,712.09c-3.45-4.15-4.41-10-4.61-15.45s-.33-10.56-4-15.07C.73,679.51.65,676.65.36,674c-1.34-12.7,1.38-25.23,2.58-37.7.85-8.84,5.52-17.72,12.17-24.71,3.89-4.09,7.62-8.34,11.61-12.33,1.62-1.63,3.54-3.45,5.65-4,12.69-3.43,21-12.9,30.29-21.12C67.93,569.43,73,564,80.72,563.33a2.46,2.46,0,0,0,1.37-.57c7.48-6.92,17.06-8.28,26.47-10.37a26.06,26.06,0,0,1,18.82,2.75c7.79,4.71,16.21,4.63,24.35,6.38,6.11,1.31,12.66.39,18.88,1.37,25,3.91,50.17.75,75.22,2,8.44.44,16.21,4.11,24.08,7.41,14.44,6.07,25.57,16.17,35.63,27.47,7.19,8.07,14.11,16.36,21.47,24.3,9.42,10.15,18.44,5.48,22.49-4.79,4.29-10.85,11.32-19,18.92-27.14,5.9-6.33,11.2-13.26,17.44-19.21,13.83-13.2,27.28-26.8,41.66-39.44,5.59-4.92,10.35-10.77,16.11-15.59,2.81-2.35,5.4-4.83,8.75-6.53s5-4.58,5.36-8.81A107,107,0,0,1,461,485.16a139.93,139.93,0,0,0,2.88-52.87c-1.35-10.16-2-20.66-4.34-30.38-2.41-10-1.32-20.43-4.81-30.17a16,16,0,0,1,0-9.89,42.37,42.37,0,0,0,1.47-16.33c-.91-10.9,2.28-21.49,2.1-32.31,0-2.93-.34-5.74-2.38-7.93-3.08-3.3-3.93-7.19-3.71-11.52.16-3.17.14-6.42-1.08-9.38-1.52-3.7.93-6.8,1.07-10.23.27-6.62.2-13.2,1.07-19.86a33.4,33.4,0,0,0-1.75-15.14,128,128,0,0,1-5.73-22.56c-.83-4.7-4.58-7.61-8-10.56-1-.89-2.14-.64-3.09.36-2.29,2.39-4.59,4.78-6.92,7.12-1.28,1.29-2.44,3.08-4,3.65-7.26,2.61-10.1,9-13.92,14.82a165.11,165.11,0,0,1-12.44,16.21,37.75,37.75,0,0,0-8.07,15.89C387,274,382.24,283,379.86,292.84a25.34,25.34,0,0,1-4.26,9c-7.22,9.66-10.17,22-19.67,30.31-4.13,3.64-6.71,9.13-11.26,12.58-2.5,1.89-4.78,5.29-8.7,3.26s-5.34-5.46-5.67-9.83c-.91-12.1,1.79-23.45,6.26-34.56A154.62,154.62,0,0,1,343,288.45c2.35-4.42,2.11-9.63.64-14.15a129.46,129.46,0,0,0-7.23-18.59,75,75,0,0,1-8.23-32.1c-.2-7.31.16-14.63,0-21.95-.23-9.23.1-18.3,4.15-26.86,2.76-5.83,2-12.38,3.58-18.53,4.17-16.19,10.64-30.9,21.81-43.7,5.39-6.17,10.78-12.89,10.85-22.24,0-4.45,2.81-8.45,6.54-11.34,3.91-3,8.52-5.43,9.59-11a2.39,2.39,0,0,1,2.13-1.88c6.45-.63,10.1-5.47,14.12-9.57,3.1-3.17,6.45-5.15,11-4.79A9.62,9.62,0,0,0,418.59,50c9.53-7.06,21-6.19,31.87-8.25,12.39-2.36,24.87-1.66,37.32-2.06a11.32,11.32,0,0,0,7.92-3.76c4.53-4.66,8.93-9.55,16-10.41A3.5,3.5,0,0,0,514,23.78c1.85-3.79,4.6-5.53,8.88-4.73.7.13,2-.2,2.22-.65,2.7-6.95,11.4-4.72,15.21-10,.36-.5,1.9-.27,2.87-.17,2.08.2,4.44,0,5.69-1.36C558.7-4,571.32,1.42,582.9,1c3.95-.15,6.53,3.11,9.34,5.37,8,6.46,15.58,13.62,24,19.45,4.43,3,9.63,5.89,15.53,6.05a10.74,10.74,0,0,1,4.4.64c11,5.56,22.36,3.56,33.7,1.89,2.49-.37,5-1,7.43-.45,12.78,3.15,26.11,1.64,39,5.21,7.3,2,15.46,1,23.14,2.67,10.35,2.24,21,3.18,31.07,6.7a6.57,6.57,0,0,1,2.67,1.32c5.78,6.27,14.13,8,21.13,12.13.29.17.58.47.87.47,9.86.12,15.34,8.67,23.4,12.11C831.39,80,842,89.18,854.5,95c3,1.39,6.35,1.85,9.45,3,4,1.46,6.49,5.19,10,7.3a116.19,116.19,0,0,0,35.49,13.8c5.05,1.08,9.53,1.69,14.53.05,3.69-1.21,7.07,1.38,10.41,2.76,3,1.22,5.5,1.56,8.47-.24,3.13-1.89,6.49-2,8.38,2,1.12,2.38,2.58,2.45,4.86,1.76,3.9-1.17,8.26-3.37,10.57,2.51,5.76-.65,9.35,7.58,15.89,3.88,1.21-.68,2.23-.15,2.93,1s1.76,2.56,3.43,2.6c2.72.06,3.45,1.46,3,3.91a4,4,0,0,0,3.26,4.89c4.4.71,6.26,3.71,8.33,7.08,4.74,7.68,12.13,13.08,17.93,19.85.75.87,2.36,1.45,2.49,2.32,1.43,9.66,11.71,13.84,14.07,23,.7,2.72,4,4.26,6.38,6.16,2.53,2.07,4.29,4.47.82,7.36-2,1.66-.63,2.88.64,4.06,7.93,7.33,10.44,17,11.34,27.2.33,3.72.64,7.26,3.1,10.31a6.32,6.32,0,0,1,1.15,3.21c1.1,11.16,1.17,22.53,7,32.67.81,1.4.29,2.93,0,4.4a16.94,16.94,0,0,0,1.12,8.76c2.94,8.42,5.79,16.9,8.13,25.51a173.51,173.51,0,0,1,4.36,23.82c1.07,8.58,2.48,17.34,2.3,26.21a124.86,124.86,0,0,0,7,44c2.05,5.9,3.28,12.13,5.88,17.91A8.1,8.1,0,0,1,1098,443c-1.07,4.29-.23,8.25,1.19,12.22,1.31,3.68,1.28,7.14-1.32,10.36a10.27,10.27,0,0,0-1.51,3.13c-2,5.77-4.43,11.3-6.9,16.87-3.94,8.9-7.26,18.47-7.2,28.65,0,3.75.86,8.83-3,10.31-3.29,1.27-5.59-3.36-8.2-5.54-9.81-8.19-14.54-19.12-17.06-31.33-1.64-8-4.87-15.52-6-23.63-.39-2.78-2.37-4.77-4.52-6.39-5.31-4-10.49-8.1-16.11-11.73-9.4-6.08-16.29-14-17.65-26.17-1.12-10.06-3-20-3.52-30.2-.21-4.45-4.06-6.63-9.1-5.29-7.72,2.06-15.65,2.71-23.55,3.56-10.95,1.18-20.87,3.64-28.07,13.62-5.31,7.36-10.56,14.35-12.34,23.42-.24,1.24-1.22,2.34-1.87,3.51a20.38,20.38,0,0,0-2.68,13.48c.82,6.57,5.16,13.71.07,20.53a3.42,3.42,0,0,0,.16,3.31c4,3.73,2.31,7.82,1.1,11.92a4.12,4.12,0,0,0,2.11,5.11c4.69,2.5,7.7,6.78,11.43,10.28a12.74,12.74,0,0,0,5.15,2.86c8.85,2.79,16.53,7.72,24,13.11,5.11,3.71,10.09,7.46,16.34,9.42,4.4,1.38,8,4.59,11.45,7.85,7.21,6.91,13.37,15,21.81,20.49,5.35,3.45,10.73,6.54,14.53,11.83,1.17,1.63,2.65,3.09,3,5.08,2,10.36,6.77,20,7.89,30.62.43,4.07-1.14,7.52-2.06,11.11-.68,2.66-3,2.17-4.5.13-2.55-3.54-6.51-4.46-9.58-1.4-2.49,2.49-4.7,5.37-4.38,9.57.29,3.85,1.12,8.7.18,11.39-1.62,4.66-1.91,9.07-2.36,13.73-.19,2-3,1.71-4.41,2.72-.7-1.94-2.77-3.42-2.52-5.59a10,10,0,0,0-1.84-7.06c-.77-1.13.12-3.49-2.14-3.43C1012,625.54,1012.16,627.63,1012,629.21Z"/></g></g></svg>
