<svg xmlns="http://www.w3.org/2000/svg" viewBox="0 0 1084.18 678.82"><title>panel-two-placeholder</title><g id="Layer_2" data-name="Layer 2"><g id="Layer_1-2" data-name="Layer 1"><filter id="inset-shadow" x="-50%" y="-50%" width="200%" height="200%">
<feComponentTransfer in="SourceAlpha">
  <feFuncA type="table" tableValues="1 0" />
</feComponentTransfer>
<feGaussianBlur stdDeviation="3"/>
<feOffset dx="0" dy="0" result="offsetblur"/>
<feFlood flood-color="rgb(20, 0, 0)" result="color"/>
<feComposite in2="offsetblur" operator="in"/>
<feComposite in2="SourceAlpha" operator="in" />
<feMerge>
  <feMergeNode in="SourceGraphic" />
  <feMergeNode />
</feMerge>
</filter>
<path filter="url(#inset-shadow)" d="M307,412.78c2.52-2.81,5.66-2.42,8.62-3.86-2.22-1.25-4.06-2.37-3.16-5.46,1-3.56-2.55-2.4-4.52-3,1.1-3.61,4.68-5,6.37-8.36-2.41.34-3.59,3-5.87,2.45-.08-.42-.28-.8-.17-1,1.22-2.16,5.54-3.06,4.62-5.19-1.12-2.58-4.68.81-7.19-.39-.6-.29-1.59.27-2.41.41a2.33,2.33,0,0,1-2.58-1.12c-.81-1.48.52-2,1.45-2.66,4.71-3.38,6.89-8.3,8.68-13.62-2.38-1.2-4,1.12-6.21.55,0-1.81,1.84-2.54,2.5-3.93s2.49-2.78.44-4.3c-1.62-1.2-3.11-.32-4.5.83-2.14,1.78-3.63,4.33-7.25,4.77,1.72-1.91,3.49-3.77,5.14-5.74.88-1,3-1.9,1.73-3.61-1.1-1.53-3-1.1-4.61-.45-.77.31-1.49.76-2.26,1.06-1.53.58-3.29.71-3.78-1.08-.57-2.13,1.22-2.26,2.83-2.32,4-.15,3.18-2.36,1.77-4.59-.33-.52-1.89-.3-1.09-1.54a2,2,0,0,1,2.28-.59c1.52.37,3.52,1.84,4.27-.46.57-1.76-2.16-1.7-2.92-2.87-1.79-2.78-4.46-3.05-7.2-2.64-1.34-2.39,4.89-5-.61-6.87a1.64,1.64,0,0,1,.08-1.27c4.51-4.86-.36-3.92-2.91-4.22.68-1.78,2.18-1.84,3.32-2.42,1.7-.87,3.68-2,2.7-4.06s-3.36-4.08-5.64-2.64c-7.36,4.65-12.55,3.55-17.28-4.06-3-4.81-8.91-5-14.09-4.57-5.84.47-11.65.25-17.48.38-1.67,0-3.55.24-4.81-.94-4.73-4.42-11-4.52-16.7-5.93-3.06-.75-5.68-1.66-7.49-4.37-2.59-3.87-6.25-5.47-10.8-4.44a6,6,0,0,1-6.25-2c-2.15-2.31-4.34-4.62-7.34-5.91a3.06,3.06,0,0,1-1.44-1.33c-6.11-12.56-17.11-21.36-25-32.59a8.3,8.3,0,0,1-1.72-3c-2-12.07-11-19-19.24-26.41-11.67-10.49-23.23-21.26-31.22-34.81-5.25-8.9-13-15.43-18.81-23.67-4.29-6.08-9.14-11.66-12.56-18.46-3.29-6.56-8.23-12.3-12.52-18.34a4.38,4.38,0,0,0-4.5-1.62c-4.89.87-9.88,1-14.59,3.07-10.62,4.74-24.91,2-33.12-6a39.9,39.9,0,0,0-3.22-3.14C-1,116.89-1,106.65,1.14,95.94a11.24,11.24,0,0,0-.24-5.81C-.21,86.46-.33,82.55,2.62,79.8c6.62-6.15,11.34-14,18-20C27,53.93,32.91,47.15,41.83,44.63A6.72,6.72,0,0,0,46.14,40c1.12-3.59,3.77-5.42,7.07-6.44A57.68,57.68,0,0,0,65.88,27.7a46.44,46.44,0,0,1,15.28-5.83,12.18,12.18,0,0,0,5.48-2.27c7.66-6.13,16.9-7.41,26.22-8.13,3.85-.3,7.66-.1,10.85-2.82,1.48-1.26,3.4-1.29,5.24-1.24,9.52.28,18.92-1.08,28.37-1.76,6.44-.46,13-.39,18.19,4.79a7.38,7.38,0,0,0,3.38,2.06C190.71,15,200.75,21.91,212,25.81c3.26,1.13,5.66,3.47,8.37,5.37,8.49,6,19,8,27.42,13.83,6,4.13,13.94,4.79,18.73,10.88A4.94,4.94,0,0,0,269,57.52C280,60.35,286.55,69,293.58,76.88c3,3.34,6.07,6.11,10.47,7.24a27.28,27.28,0,0,1,11.07,5.57,14.82,14.82,0,0,0,10.58,3.72,9.83,9.83,0,0,1,6.64,1.72c2.67,2,2.78,3.57-1.35,4.23,3.67,2.66,7.45,4.17,11.8,6.23-1.81-4-4.44-6.51-6.74-9.23-.72-.85-2-1.71-1.44-2.95.68-1.52,2.32-1,3.57-.93a4.82,4.82,0,0,1,2.82.77c2.23,1.95,4.38,1.93,6.84.48s3.41-1.3,3.68,2.31a18.13,18.13,0,0,0,6.57,12.63c.83-1.67,0-2.43-.45-3.26-2.93-5.12-2.36-8.42,2.52-12.39,2.07-1.68,1.8-3.62,1-5.7,3.15-.35,3.89,4.9,7.05,2.62s-.63-4.39-.67-7.37c3.74.05,5.29,2.9,6.24,5.31,3.57,9.06,11.11,15.66,14.86,24.56.15.37.72.56,1.59.63-1.88-4,.27-8.58-4.17-12.47s-6.91-9.49-10.2-14.4c-.64-1-1.19-2.25.08-3.11s2.13.08,3.06.88c1.25,1.07,2.63,2,3.92,3,1.79,1.43,2.93,5.2,6.06,1.44.51-.61,1.47.36,2.09.89a8.3,8.3,0,0,0,5.78,1.81c.28-6.71-9-4.74-9.35-11,3.07,1.48,3.22-3.76,6.72-2.5-1.44-3.65-5.76-4.5-6.84-8.1,9.11,5.4,19.87,9.11,20.9,23.29,3.64-6.51.79-10.93-.77-15.38-.77-2.2-1-4,1.18-5.15,2.36-1.28,3,1.21,4.36,2.27,2.46,2,1.41,5,2.14,7.46.38,1.29.49,2.7,2,3.14a1.53,1.53,0,0,0,1.34-.3c1-1.32.17-2.56-.47-3.68-3.43-6-3.62-12.6-2.88-19.07.36-3.14,3.53-.14,5.48-.62s3.42,1.73,3,4.1a8.24,8.24,0,0,1-1.16,2.19c-.85,1.61-.25,2.94,1,4,1.41,1.24,2.42.31,3.33-.8.62-.76,1.39-2.12,2.29-1.51,3.75,2.54,4.33.75,4.62-2.72.09-1.05,2.14-2.88,3.25-.54,2,4.09,2.61,1,3.56-.46s1.27-3,3.08-3.73c3.63-1.41,3.59-4,1.77-6.83-1.32-2-2.33-3.06,1.31-3.76,2.93-.56,5.44-2.53,8.36.17.86.79,2.58.54,3.78-.31,6.49-4.59,13-3,19.5,0,.93.42,1.78.49,2.15-.3,2.09-4.48,3.91-2.55,5.78.9,1.1-2.44,1.8-4.71,4.72-3.23,1.27.65,2.4,0,3.37-1.31C497,44,500,42.95,503,46.62c1.9-1.45-.69-3.09.73-4.32,8.22,2.62,16.9,2.45,25.27,4.12,2,.39,3.93.55,5.8-.65.63-.4,1.95-.73,2.32-.4,5.48,4.94,11.19,3.75,16.58.42,1.18,1.16.64,2,.59,2.76-.31,4.35-1.44,8.28,5.57,3.95,3.08-1.91,8.89-.42,13.08.8,3.38,1-1.4,2.93-.19,5.12,3.76.22,5.64-3.47,9-5.46.54,4.89,2.68,4.87,6.44,2.95,3.47-1.78,14.17,3.08,16.13,6.77.89,1.67,2,2.8,3.89,2.31,2.08-.54,1.33-2.28,1.36-3.73a30.17,30.17,0,0,1,.53-4.44c.3-1.82.58-3.79,2.9-4.14,2.49-.37,3.14,1.45,3.45,3.35.41,2.53,2.8,3,4.6,4.16-1.74,2.13-3.91,3.46-5,5.78s-3.78,3.11-7.34,4.75c3.42.54,5.55,1,7.71,1.2,2.43.26,5.77-3.07,7,2.18.22.94,3.06-.26,4.47-1.06s2.62-2,2.28-3.57c-.39-1.75-2.47.21-3.57-1.15,2.08-2.83,3.22-6.64,7.42-7.64.83,2-.42,2.58-1.15,3.38-.89,1-.64,2.42.33,2.33,3.59-.33,6.2,2.34,9.68,2.59A30.57,30.57,0,0,1,657,74.08c1.1.7,1.94,2.13,3.32,2,11-.94,19.89,6.48,30.28,7.86,7.14.94,14.29.3,21.43-.32,1.65-.14,3.57-.6,4.92,0,4.92,2.32,9,.19,12.48-2.53,16.05-12.46,35.46-19.57,51.24-32.43.26-.21.57-.54.83-.52,8.34.69,12.2-6.46,18-10.21,5.53-3.57,12.3-5.14,16.73-10.55.67-.82,2.48-1.07,3.73-1,4,.24,7.32-1.12,10.84-2.9,12.67-6.43,25.75-12.82,39.42-15.82,16.37-3.59,32.73-9.2,50-7.33,17.7,1.91,35.07,5,51.72,11.67,5.18,2.09,10.19,3.91,13.9,8.27a9.23,9.23,0,0,0,5.23,2.76,15.72,15.72,0,0,1,8.43,5.07,18.1,18.1,0,0,0,10.14,6c7,1.31,11.78,5.91,16.46,10.59a37.12,37.12,0,0,0,10.06,7.28,30.4,30.4,0,0,1,7.74,5.41A24,24,0,0,0,1054,63.65a13.34,13.34,0,0,1,5.63,3.08c6.63,6.56,14.73,11.41,21,18.41,3.12,3.48,4.54,7,2.62,11.35-2,4.52-5.31,7.89-10.62,7.76-7.24-.18-13.93-2.94-20.73-5.12a53.82,53.82,0,0,0-5.64-1.94c-4.48-.89-7.93.3-9.2,5.23-.37,1.45-1.24,2.85-1.3,4.29-.43,9.7-6.41,16.7-11.52,24.12-3.43,5-4.89,10.88-7.44,16.26-3.38,7.13-9.34,12-13.36,18.48-5.86,9.43-12.95,17.94-20.07,26.46-4.71,5.64-9.67,10.88-14.85,16.07-5.79,5.8-12.43,10.48-18.42,16-7.15,6.53-11.85,15.12-18.53,22.13-7.88,8.28-15.08,17.2-22.88,25.6a84.17,84.17,0,0,1-21.26,16.87,13.33,13.33,0,0,1-4.09,1.68c-9.13,1.68-18.27,3.36-25.28,10.32a5.83,5.83,0,0,1-3.48,1.83c-7.06.08-13.39,3.86-20.44,3.84-1.16,0-2.52-.21-3.46.29-9.34,5-19.31,3.57-29.25,3.28-9.08-.27-15.25,5.53-21.15,11.46-2,2-3.67,4.35-5.8,6.19-7.89,6.78-13.49,15.51-20.2,23.29-2.76,3.21-5.64,4.54-8.24-1.19-1.65,3.2.42,4.59,1.35,6.23.63,1.11,2.16,2.24.88,3.46-1.46,1.38-2.68-.14-3.84-1-1.32-1-1.87-3.22-4.19-3-.29,1.92,1.2,2.81,2.18,3.72,4.08,3.78,3.22,9.16,4.56,13.78.64,2.22-1.34,4.07-3.25,5.18s-3-.85-4.14-1.86c-4-3.44-8.33-5.59-13.84-4.24-1,.25-2.16.37-2.59,1.22-2.89,5.61-7.07,10.89-4.89,17.89a5.88,5.88,0,0,1,.46,1.4c0,.78-.78,1.49-1.21,1.12-3.72-3.14-5.59,10.92-10.36.61,2.46,6.18.7,12.92,4.85,18.51a7,7,0,0,0,.81-1.28c.42-1.63-2.52-4,0-4.68,2.21-.62,2,2.38,2.5,4a36.07,36.07,0,0,0,5.38,10.44c.64-4.09,1.35-7.48-1.7-11.87,5,1.58,9,2.15,9.7,6.6.5,3.25-2.38,3.32-4.87,2.44a11.69,11.69,0,0,0,0,1.51c.49,2.67,5.09,3.43,3.84,6.44a41.58,41.58,0,0,1-6.32,10c-2.51,3.07-3.16-1.64-5.83-1.73,1.74,3.72,3.13,7.27,5,10.55a7.83,7.83,0,0,1-.35,8.88c-2.16,3.34-3.77,7-6.82,9.79-.85.76-1.91,1.8-2,2.79-.79,8.45-7.24,14.51-9.31,22.4-.68,2.61-1.77,5.43-4.88,5.65-2.87.2-3.76-2.62-5.36-4.53-3.12-3.73-3.79-8.35-6.09-13.07,3.49.9,4.78,4.09,7.48,5l1.26-1.24c-2.15-1.71-4.09-3.79-6.48-5-4.26-2.23-5.41-7.11-9.06-9.78-.57-.41-.86-1.61-.37-1.65,2-.18,1.81-3.69,3.7-2.86,2.14.94,2.73,1.35,1.84-1.34a2,2,0,0,1,.43-1.8c8.08-5.54,1.41-11.87.85-17.79-.21-2.26-2.72-4.2-1.26-7.27,2.46,1.69,2.86,5,6.71,7-3.78-5.05-3.2-10.62-6.65-14.9l6,3.81c-1.66-4.25-4.09-8.07-5-12.51-.48-2.45-.68-5-1.26-7.37-.37-1.56-1.11-3.94-3-3.19-2.22.88-.26,2.8.16,4.24.22.76.6,1.48,1.52,3.67l-11.54-9.55c-1.57,3,.27,5.32,1.09,7.72-2,.64-2.18-2.08-4.23-1.72,1.19,4.14,5.08,7.47,4,12.34-2.5.24-2.9-1.94-4-3.18-.83-.91-1.64-1.84-2.89-.74-1,.84-.62,1.78.09,2.62,1.18,1.39,2.31,2.61-.47,3.67-1.72.66-.62,1.95,0,2.84a69.39,69.39,0,0,1,4.39,6.18c-4-2.08-9.17-1.25-11.87-5-3.41,4-6.11,8.2-3.19,13.43a6.07,6.07,0,0,1-1.38.28c-2.32-.3-3-3.84-5.7-3.1-1,.27-.36,9.38.39,10.88,6.26,12.44,18.55,20.32,24.76,32.83.72,1.46,2.73,3.6,4.28,2.38a3.83,3.83,0,0,0,0-5.68,23.09,23.09,0,0,1-2.29-3.37c3.09.38,4.2,2,5.34,3.89a26.05,26.05,0,0,0,9.3,9.4,5.83,5.83,0,0,1,3.29,5.38c.09,2.32,2.61,4.66,4.29,6.8,3.72,4.76,4.05,8.34,1,13.7-1.4,2.49-1.69,5.25-2.27,8-1.28,6.11-4.07,11.84-5.62,18-2.41,9.5-6.73,18.25-11.4,26.84-2.48,4.57-1.44,6.79,3.52,8.64a4,4,0,0,1,2.74,3.75,23.6,23.6,0,0,0,.84,5.4c1,2.67,2.42,5.64,5.23,6.26,2.52.55,3.21-2.86,4.86-4.39,1.67.68,1.08,2.32,1.58,3.45s.23,2.35,1.57,3.06c3.44-3.38,4.63-7.87,5.8-12.28.94-3.56,2.44-3.46,4.8-1.33,4.55,4.1,8.13,9.3,13.85,12.09,1.2.59,2.19,1.86,1.27,3.32-1.87,3,.19,5,2,6.37,2.76,2.12,3.21,4.73,3.29,7.87.16,6.07-.88,12.17,2.23,18.1,1.26,2.41,1,6.39-3.43,7.48-2.08.52-2.57,1.89-1.26,3.77,1.8,2.6,2.3,5.8,4.13,8.48,2,2.93,1.29,6-1.81,8.2-5.22,3.63-4.54,9.41,1.51,12.34.17-.26.49-.53.48-.78-.08-1.52-3.23-3.3-.18-4.42,2.14-.79,3.61,1.23,4.1,3.36.37,1.62.41,3.31.71,4.94.55,2.95-.69,4.16-3.59,4.71-6.44,1.22-12.93,1.2-19.42,1.21q-48,.1-96,0c-2.87,0-6.14.84-7.91-2.72-.42-.84-1.42-.69-2.23-.28-9.28,4.7-19.38,2.94-29,3-88.16.15-176.32-.09-264.49-.24-7.75,0-9.76-3.11-5.43-9.4,2.74-4,.94-9.1,4.67-12.79,1.94-1.92,3.47-3.78,6.21-4.4a10.73,10.73,0,0,0,5.19-2.88c1.22-1.21,1.16-2.51-.79-2.87-6.62-1.24-13.29-3.56-19.79.56a4,4,0,0,1-2.39.41c-6.76-.7-9.51,1.08-11.88,7.64-1.27,3.5-1.79,7.48-6.44,8.7-1.66.44-2.43,2.34-1.56,4.16.75,1.57,2.81,3.12.76,4.77-2.67,2.16-3.53,6.46-8.35,6.22-4.17-.21-8.28-1-12.43-1-17.67-.06-35.4-.9-53,.33-19.34,1.35-38.63.49-57.93.94-7.33.17-14.55-1.73-21.92-1.24-2.7.18-4.32-1.51-3.78-4.05,2.68-12.5,7.31-24.16,16.72-33.21,2.11-2,4.8-3.6,6.75-5.86a185.6,185.6,0,0,1,31.4-29.11c6.92-5,13.13-11.32,21.3-14.42,5-1.88,9.83-3.26,13.58-7.58,1.66-1.91,5.1-1,7.35.86s4.12,1.87,6.06-.33a7.14,7.14,0,0,1,5.83-2.33,26.26,26.26,0,0,0,10.24-2c3.69-1.46,7-1.72,10.33.88a3.71,3.71,0,0,0,4.68.14c3.37-2.43,6.89-2,10.51-.83,4.1,1.29,7.41.46,11.13-2.1,4.88-3.36,10.66-5,16.23-.7,2.94,2.26,6.45.74,9.66,1.53,1.89.46,2.87.83,3.51,2.61q1.86,5.12,4,10.14c1.4,3.22,4.43,3.8,7.46,4.07,10.93,1,12.87-1.06,10.56-11.85-2.38-11.09-1.13-22.21-.93-33.34a2.44,2.44,0,0,1,.07-.49c2.3-10.07,2.3-10.22-8.27-10-7.21.15-14.55,1.14-21.52-.81-5.5-1.54-10.36-5.09-16.06-6.43a1,1,0,0,1-.53-1.58,3.11,3.11,0,0,1,2.13-1c3.14.34,6.27.81,9.38,1.36,6.22,1.1,12.41,2.22,18.8,1.59,4.48-.44,7.81-4.85,5.55-8.83a24.75,24.75,0,0,1-3.22-13.34,4.08,4.08,0,0,1,.45-2.35c3.46-4,1.38-10.24,5.7-13.94,1-.83,1.34-2.87.06-3.6-3.8-2.17-2.87-6.51-4.8-9.52-1.28-2-.39-4.11.51-6.18,2-4.65,1.21-9.29.2-14.13-1.59-7.65-5.78-15.17-2-23.31a1.84,1.84,0,0,0,.14-.48c.77-5-3.28-9.75.13-15.06,1.47-2.28-4.28-2.35-4-5.84C313.66,412,309.92,413.23,307,412.78Z"/></g></g></svg>
