<svg xmlns="http://www.w3.org/2000/svg" viewBox="0 0 694.04 672.64"><title>panel-five-placeholder</title><g id="Layer_2" data-name="Layer 2"><g id="Layer_1-2" data-name="Layer 1"><filter id="inset-shadow" x="-50%" y="-50%" width="200%" height="200%">
<feComponentTransfer in="SourceAlpha">
  <feFuncA type="table" tableValues="1 0" />
</feComponentTransfer>
<feGaussianBlur stdDeviation="3"/>
<feOffset dx="0" dy="0" result="offsetblur"/>
<feFlood flood-color="rgb(20, 0, 0)" result="color"/>
<feComposite in2="offsetblur" operator="in"/>
<feComposite in2="SourceAlpha" operator="in" />
<feMerge>
  <feMergeNode in="SourceGraphic" />
  <feMergeNode />
</feMerge>
</filter>
<path filter="url(#inset-shadow)" d="M96.47,592.76c-3.54.9-4.58-.67-4.68-2.95-.24-5.61-2.3-11-1.54-16.8.33-2.52-1.3-5.59-2.73-8-5.39-9.09-4.42-19.15-4.87-29-.11-2.37,1.26-4,3.13-5.36,3.47-2.55,6.83-5.25,10.59-8.17-3.08-1.6-2.69-4.11-2.57-6.86.23-5.43,0-10.89-.22-16.32-.19-4.47.36-8.21,6.38-8.51-2.75-.86-6.25.88-7-3.41-1.27-7.62-.09-11.64,4.87-14.17-2.28-.72-5.12,0-5.88-2.84a5.77,5.77,0,0,1,2.1-6.3c3.06-2.17,1.56-5.22,1.52-7.49-.11-6.12,2-11.86,1.94-18.05,0-9-1.48-16.89-7-23.95A5.72,5.72,0,0,1,89.07,412c-1.1-10.57-9.9-14.7-16.89-20.34C71,390.77,69,390.15,68.72,389c-2.29-8-9.51-13.21-11.92-21.11-.14-.47-.07-1.26-.35-1.41-9-4.63-2.6-12.75-4.12-19.06-.46-1.92.89-4.39-.28-6.67a2.9,2.9,0,0,1-.09-2.43c4.79-7.42-1.43-14.44-.73-21.69a4.07,4.07,0,0,0-1.81-3.93C41.64,308.09,42.5,300.29,42,293c-.06-.82.53-2.11.17-2.41-5.08-4.23-2.21-10.2-3.45-15.24a11,11,0,0,1-.48-3.44c.94-11.33-.1-22.67.19-34,.17-6.71-2.8-11.61-7.35-15.55a17.49,17.49,0,0,1-5.49-9.19c-.21-.78-.52-1.92-.14-2.4,4.26-5.5,2.36-12.4,4.24-18.45.63-2,.53-5.37-.72-6.73-4.16-4.5-2.83-10.23-4.33-15.27-.55-1.85.81-2.71,2.29-3.31,2.36-.95,3.71-3.44,3.08-5.14-2.33-6.31,0-12.37,0-18.51,0-5-1.85-10.13-3.68-14.89-3-7.71-7-15-8.92-23.15-.63-2.67-1.64-5.72.22-7.67,2.53-2.65,1.22-4.27-.27-6.33-7.48-10.36-9.43-22.18-10-34.66C7.1,52.51,5,48.23,4.1,43.9c-.22-1.11-1.39-2.41-.46-3.27,3.81-3.51,1-6.46-.27-9.82C1.33,25.43.92,19.56,0,14c-.52-3.29,3.25-6.62,7.19-7,3.7-.4,6.84-2.09,10.19-3C26.68,1.27,36.16-1.89,46,1.42c1.24.42,2.77,1.05,3.87.69,14.51-4.86,24.88,5,36.57,10.15,1.51.66,2.83,1.94,4.38,2.27,10.83,2.3,20,8.18,29.48,13.39a25.67,25.67,0,0,0,10,2.91c1.48.16,3.52-.26,4.36.56,7.83,7.61,18.46,5.6,27.61,8.52,3.24,1,6.43,2.79,9.77,3.76,3,.86,6.09,3.19,9.21.06a2.32,2.32,0,0,1,1.91-.28c8.54,2.36,16-2.28,23.87-3.81,1.31-.25,2.78-1.12,3.83-.27,3.92,3.15,7.43,1.28,11.11-.43,2.77-1.29,5.63-1.21,8.74-.83a162,162,0,0,0,22.86,1.48c6-.14,11.14-4,16.53-6.37,4.79-2.06,9.66-3.11,14.55-4.51,9.47-2.72,19.33,1.94,28.73-1.78A29.35,29.35,0,0,0,318,25.17c6.35-3.8,13-4.63,20.36-3a113.31,113.31,0,0,0,20.18,2.49c5.14.17,10.13,1.4,15.33-.18,1.59-.48,2.92.92,4,2.46,3,4.45,6.22,6.44,12.65,6.42,9.81,0,20.36.54,29.1,6.75,4.22,3,8.33,3.91,12.72.24,3.65-3,7.58-1,10.84.51,6.78,3.05,13.53,5.25,21.11,4.8,4.4-.26,14.56,8,15.2,12.41.76,5.31,3.92,5.45,7.48,3.8,3.88-1.8,8.12-3.11,11.33-6.14,3-2.81,6.39-3.71,10.11-2.08,7.35,3.24,14.51.47,21.39-1.18,3.77-.9,6.62-5.24,11.15-5.74,1.64-.18,3.46-1.12,4.86-.66,4.26,1.39,7.57.76,10.71-2.63,2-2.16,5.07.08,7.67-.75,6.16-2,12.42-3.68,18.63-5.48,1.43-.42,2.93-1.3,4.3-1.13,8.77,1.09,15.87-4.4,23.93-5.82,9-1.57,17.57-4.78,26.68-5.48,3.64-.28,7.32-.21,11-.23,1.66,0,3.74-.48,4.93.31,8.67,5.77,19.68,3,28.5,8.07.29.16.63.42.91.37,4.54-.73,8.44.56,9.06,5.36.48,3.74,1.74,7.36.44,11.68-1.48,4.89-2.76,9.67-5.2,14.25s-2.51,9.76-3,15c-.79,8.79-2.53,17.69-9.32,24.41-1.3,1.28-2.83,2.52-3.09,4.44-1,7-6.36,11.75-9.16,17.83-1.17,2.56-3.2,4.83-3.06,7.77.42,9-3.41,16.5-7.81,23.82-2.31,3.85-5.06,7.45-6.61,11.72-.9,2.46-3.25,3.1-5.6,4.58,4.57-.34,4.93,2.19,5,5.51.08,5.09-.2,9.94-3.21,14.31-1.84,2.67-.94,5.86-1,8.78-.07,3.35,1.45,6.47-1,10-1.67,2.38,1.75,3.71,3.64,4.95,2.17,1.42,5.26,2.26,1,5.41-2.09,1.55-2.58,4.92-1.88,7.86.5,2.09,1.09,4.16,1.6,6.25,1.5,6.19.59,9.52-5.4,11.56-7.71,2.63-9.49,9.74-9,15,.5,5.83-.16,11.44-.37,17.08-.24,6.61.69,13.29-.25,19.78-1.23,8.41-2.46,17.09-5.66,24.84-2.36,5.71-2.34,12-5.63,17.39a5.58,5.58,0,0,0-.15,5.74c1.32,2.13.5,4.1-.56,6.11-2.05,3.89-2.84,7.8.49,11.51,2.4,2.67.12,7,3.36,9.46a1.91,1.91,0,0,1-.61,1.17c-5.18,2.29-3.72,5.81-2,9.59,1.09,2.4,1.91,4.66-1.11,7-3.2,2.46-3.32,8.9-.12,12.4a9.73,9.73,0,0,1,2.53,7.72c-.26,3.8,1.34,6.26,3.94,8.6,3.71,3.34,7.16,7,10.94,10.23,4.66,4,5.41,9.84,7.05,15.13,1.1,3.55,2.85,5.89,6.18,7.21a10.41,10.41,0,0,1,6.35,6.58c1.38,3.92,4,7,6.51,10.36,3.49,4.6,5.85,10.49,5,16.7-.45,3.23.21,5.51,2.9,7.28a7.17,7.17,0,0,1,3.18,7.84c-.64,3.44.7,5.71,3.45,7.61,1.76,1.22,3.11,3,4.83,4.32,4.8,3.64,3.75,9.06,4.41,14,.15,1.11-.43,2.52,1.06,3,4.65,1.47,4.48,5.3,4.46,9-.1,15.29-1.81,30.71-1.1,45.78.54,11.54-2,24.1,4,35.18,3.41,6.28.32,12.41-.49,18.4-.68,5,1.62,10.66-2.39,15.24-.72.83.56,1.67,1.24,2.4a7.86,7.86,0,0,1,1.55,8.77,8,8,0,0,1-7.58,4.83c-11.83,0-23.68-.25-35.47.41-13.15.73-26.27.18-39.4.27-11.31.08-22.64-.71-33.92-.26-16.65.65-33.26,0-49.89-.09-52.11-.23-104.22-.07-156.33-.1q-109.46-.07-218.92-.2c-12,0-24,0-36,.07-4.09,0-6.61-1.25-7.35-5.65-.37-2.23-1.74-4.28-2.6-6.44-2-5.09-4.48-10.13-1.1-15.65.51-.84,1.33-2.12-.17-3-5.4-3.34-5.8-9.26-6.9-14.51-1.66-7.9-1.18-16.12-2.92-24.06C93.13,599.34,94.13,596.32,96.47,592.76Z"/></g></g></svg>
