<svg xmlns="http://www.w3.org/2000/svg" viewBox="0 0 981 869.76"><title>panel-six-placeholder</title><g id="Layer_2" data-name="Layer 2"><g id="Layer_1-2" data-name="Layer 1"><filter id="inset-shadow" x="-50%" y="-50%" width="200%" height="200%">
<feComponentTransfer in="SourceAlpha">
  <feFuncA type="table" tableValues="1 0" />
</feComponentTransfer>
<feGaussianBlur stdDeviation="3"/>
<feOffset dx="0" dy="0" result="offsetblur"/>
<feFlood flood-color="rgb(20, 0, 0)" result="color"/>
<feComposite in2="offsetblur" operator="in"/>
<feComposite in2="SourceAlpha" operator="in" />
<feMerge>
  <feMergeNode in="SourceGraphic" />
  <feMergeNode />
</feMerge>
</filter>
<path filter="url(#inset-shadow)" d="M26.72,777.2c-2.82-.82-4.59-2.32-2-4.44,5.87-4.74,8.32-12.41,14.75-16.69a33.26,33.26,0,0,1,9.75-4.59c5-1.39,9.4-4.59,14.35-6.08,9.23-2.78,17.75-7.28,28.08-7.39,11.26-.11,22.54-2.62,33.94-2.55a9.26,9.26,0,0,0,5.65-1.78,33.17,33.17,0,0,1,16-6.45c6.17-.74,11.27-3.78,16.94-5.45,7.85-2.3,15.63-4.62,23.91-4.21,3.33.16,6.26-1,9.05-2.44,7.72-4,14.88-8.13,21-15,9.43-10.48,15.5-23,23.8-34.08,8.5-11.35,11-24.88,12.8-38.69,1-7.59,3.89-14.91,6.46-22.23a122.93,122.93,0,0,0,6-29.68,79.38,79.38,0,0,0,.19-13.48c-.72-9,1.36-17.43,3.82-25.93a46.13,46.13,0,0,0,1.47-21.7c-.94-4.94-3.34-8.35-8.29-10.2-7.82-2.92-14.51-7.13-16.5-16.25-.57-2.62-3.16-4.34-5.36-5.71-5.22-3.25-4.33-9.13-5.86-13.76-1-3.08,3.24-5.08,5.7-6.83,8.41-6,16.87-11.92,26.1-16.65,1.17-.6,3.37-1.07,2.38-3-.68-1.33-2.63-1.59-4.07-.91-2.13,1-5,1.33-5.32,4.52a2.56,2.56,0,0,1-.82,1.67q-10.51,7.2-21.11,14.26c-1.53,1-3,.62-4.58-.43-7.82-5.08-12.87-12.34-16.74-20.59-.88-1.88,0-3.52.83-5.21,1-2.18.45-5.13-1.35-5.48-5.7-1.11-6.52-5.76-7.12-9.72-1.06-7.06-4.22-13.79-2.37-21.45.93-3.84,2-6.6,5.54-7.94,5-1.87,5.28-5.67,5.9-10.31,1.14-8.49-1.41-16.79-.29-25.18,0-.33.15-.79,0-1-6-7.09,0-14.18,0-21.27,0-4.59,1.34-9.33-1.91-13.48a3.48,3.48,0,0,1-.22-3.8c2.81-6,1.72-11.66-1.32-17.1-1.88-3.37-2-7.1-2.18-10.66a23.36,23.36,0,0,0-5.17-13.76c-2.63-3.24-2.58-6,.69-9.1,6.34-6,6.37-9.6.52-15.85a11.39,11.39,0,0,1-3.31-8.58c.22-6.69.91-13.95-2.06-19.72-6.51-12.67-7.15-27.24-13.87-39.65-3.14-5.81-7.38-11-9.12-17.57a7.77,7.77,0,0,0-3.1-3.81c-8.87-6.16-14.82-15-21.7-23-4.37-5.08-9.35-9.71-14.23-14.37-5.53-5.27-10.93-10.93-13.47-19.13-1.76-5.66-3.36-10.86-2.62-16.71.93-7.39,4.76-9,10.92-4.74,6.86,4.76,11.86,11.8,19.19,15.94,13.3,7.52,26.23,15.88,40.83,20.72,6.89,2.28,14.41,2.69,21.3,5,8.48,2.83,17.68,3.19,25.63,7.7,2.2,1.25,4.54,2.28,7.11,2,8.91-.9,16.43,2.91,23.94,6.84a5.42,5.42,0,0,0,2.78,1c8.28-1.17,16.91,1.5,24.95-2.93,4.48-2.47,9.86-2.82,14.68-4.74,5.83-2.32,10.17-7.83,17-7.82,2.51-7.17,10.36-4.92,14.58-8.17,9.32-7.17,20.6-9.18,30.92-13.48,5.1-2.13,9.61-3.36,13.13-8.24s9.51-2.64,14.39-1.55c2.15.48,3.67.85,5.42-.65,3-2.54,6.29-2.73,9.79-1.12a7.91,7.91,0,0,0,8.86-1c3.55-2.75,7.35-2.74,11.06-.07.81.58,1.91,1.74,2.46,1.53,5.59-2.13,11.32,1.17,16.79-.45,3.25-1,6.55-1,9.81-1.62.75-.13,2,0,2.35.51C476.85,95,481,94.75,484.59,96c6.87,2.44,13.28,2,19.82-.54a12,12,0,0,1,6.38-.54,31.85,31.85,0,0,0,13.36-.68c4.17-1.11,8.26-1.06,10.94,3.34,1.41,2.31,3.75,1.69,5.89,1.54,2.82-.21,5.49-.18,6,3.55.21,1.6,1.3,2.17,2.74,2.45.81.16,2,.27,2.3.81,3.4,5.81,9.85,4.38,14.85,6.29s9.46-.69,13.85-2.5c5.59-2.31,10.18-6.07,14.41-10.46,12.25-12.69,24.93-25,37-37.79,14.5-15.35,28.75-30.95,43.9-45.65C683.85,8.24,692.69,2,704,.17a12.36,12.36,0,0,1,9.34,2.29c6.84,4.48,12.4,10.43,18.21,16.1a104.07,104.07,0,0,1,21.92,31.23c4.5,9.82,6.92,20.33,5.9,31.54-1,10.57-.94,21.25-1,31.88A35.58,35.58,0,0,1,756.7,122c-3,11.66-1.18,23.55-1.94,35.31-.38,6,.26,12-1.65,17.81-3,9-1.21,18.37.14,27.21,1.2,7.84-.29,15.95,2.64,23.5,2.79,7.2.64,13.14-3,19.64-2.79,4.93-.83,11.32-.35,17,.74,8.92,3.06,18.65-2.08,26.22-5.88,8.67-5.86,17.88-6.84,27.28a21.1,21.1,0,0,1-5.47,12.51,17.72,17.72,0,0,0-4.37,16.63c1.65,6.88.35,13.26-4.65,18.45-2.33,2.42-2.57,4.67-.36,6.95,3.07,3.17,2.55,5.64-.76,8.21a6.36,6.36,0,0,0-2.1,8,3.74,3.74,0,0,1,.06,3.4c-4.84,8-9.68,16-14.62,24-1,1.67-3.16,1.76-4.82,2.46-4.22,1.77-6.31,4.62-5.55,9.38.9,5.64.22,11.27-.36,16.89-.56,5.41-5.64,8.52-6.82,13.61-.05.23-.51.39-.8.54-1.94,1-5.78-.51-5.79,2.55,0,4.31.18,9.43,2.43,12.76a45.33,45.33,0,0,1,6.8,14.74c1.17,4.75,3.8,8,8.8,9.13,5.85,1.37,9,5.24,12.35,10.43,4,6.24,5.7,13.86,11.4,19a3.13,3.13,0,0,1,.95,1.73c2.1,14.64,10.86,25.94,18.8,37.65.47.69,1.38,1.4,1.33,2.06-.51,7.77,4.55,14.51,3.89,22.35-.45,5.23,3.51,8.75,6,12.76,5.18,8.26,10.7,16.32,15.55,24.76,2.38,4.14,1.24,9.18,1.12,13.8s1.43,7.42,5.81,9.3c5.82,2.5,8.59,7.84,10.49,13.56.39,1.18.56,2.25,1.86,2.62,6,1.69,11.18,5.73,17.6,6.36a5.85,5.85,0,0,1,3.15,1.37c5.48,4.95,12.7,6.27,18.88,9.46,7.49,3.87,15.79,5.77,22.84,10.4a14.06,14.06,0,0,0,7,2.52c12.29.71,24.6,1.15,36.86,2.16,17.69,1.46,32.57,8,42.64,23.66,3.58,5.58,7.52,10.84,10.08,17.05,1.46,3.55,5.86,4,8.64,6.44,6.71,5.88,11.19,13.43,15.17,20.92,7,13.21,2.78,30.85-8.17,40.83a63.72,63.72,0,0,0-12,15.28c-.94,1.61-1.72,3.25-3.65,3.87a180.56,180.56,0,0,1-28.53,6.3c-8.58,1.28-17.83.81-26.81.61-16.15-.36-32.41-1-48.44.53-9.07.85-17.41-.48-26-1.89-6-1-12-.49-18-.57a17.23,17.23,0,0,1-9.51-2.4c-4.36-2.77-9.67-2.27-14.47-3.16-8.72-1.62-17.57-3-26.68-2-13.56,1.54-27.22,1.62-40.89,1.52-30.64-.22-61.28.89-91.92,1.28-19.8.25-39.59.4-59.39.18-13-.15-25.91,2.36-38.81,2.22-28.25-.3-56.48,1.08-84.57,2.8-29.17,1.78-58.25.53-87.34,1.53-23.27.8-46.49,2.68-69.84,2.22-8.26-.16-16.75,2.27-24.84,4.56-6.16,1.74-12.59.44-18.62,3-9.22,4-19.84,4.08-28.31,10.26a10.12,10.12,0,0,1-6.65,1.86c-6.28-.45-12.2,1.35-18.21,2.59-3.25.67-6.39,2-9.46-.67-1.14-1-2.55-.36-3.56.72-2.89,3.1-6.61,3.66-10.56,3.42a35.7,35.7,0,0,0-15.19,2.26c-4.92,1.88-10.11,1.77-15.29,1.84-8.45.11-16.93-.77-25.27,1.87-12.59,4-25.44,1.77-38.15.6-9.25-.85-18.42-2.69-27.63-3.88-5.34-.69-10.49-.57-15.84-2.59s-9.46-5.38-14.22-7.93c-2.14-1.15-3.55-1.72-5.16-.22-3,2.76-3.91.84-4.72-1.76-.35-1.11-1-2.3-.89-3.36,1-7.23-1.19-14.54.85-21.76,2.71-9.6,4.7-19.38,6.93-29.1,1.37-6,4.58-11.32,10.7-14.05.59-.26,1.68-.67,1.65-.84C19.25,777.51,24,779.41,26.72,777.2Z"/></g></g></svg>
